<svg viewBox="689.4867 434.0165 354.9996 263.9646" width="333" height="247.6065094157853" x="83.5px" y="126.1967px" xmlns="http://www.w3.org/2000/svg" xmlns:xlink="http://www.w3.org/1999/xlink" preserveAspectRatio="none"><defs/><style>.companyName {fill:#FFFFFF;fill-opacity:1;}.icon1 {fill:#FFFFFF;fill-opacity:1;}.icon2 {fill:#59C65B;fill-opacity:1;}.icon3 {fill:#6D6D6D;fill-opacity:1;}.icon3-str {stroke:#6D6D6D;stroke-opacity:1;}</style><g opacity="1" transform="rotate(0 795.9866 434.0165)">
<svg width="141.9999" height="163.9646" x="795.9866" y="434.0165" version="1.1" preserveAspectRatio="none" viewBox="17.522998809814453 12.5 64.9530029296875 75">
  <g transform="matrix(1 0 0 1 0 0)" class="icon1"><g><path d="M82.474,31.249L49.999,12.5L17.526,31.248l-0.003,0.002v37.501L49.999,87.5L50,87.499l32.476-18.748V31.25L82.474,31.249z    M79.654,67.121L50,84.24V72.259L50,72.26L30.722,61.131v-22.26l0.002-0.002l9.721,5.612h0.001L50,38.965l9.555,5.517h0.001   l0.001,0.001v11.035L50,61.034v11.225l19.278-11.128v-22.26l-0.002-0.001l-0.001-0.001L50,27.74L30.724,38.869l-10.376-5.991   l29.651-17.12l29.652,17.12l0.003,0.002V67.121z"/><polygon points="40.443,44.483 40.443,55.518 50,61.035 50,61.034 50,50 40.444,44.482  "/></g></g>
</svg>
</g><g opacity="1" transform="rotate(0 689.4867 637.9811)">
<svg width="354.9996" height="60" x="689.4867" y="637.9811" version="1.1" preserveAspectRatio="none" viewBox="2.08 -25.44 150.52 25.44">
  <g transform="matrix(1 0 0 1 0 0)" class="companyName"><path id="id-D6z1nYkh9" d="M2.08 0L2.08-25.44L12.68-25.44Q17.76-25.44 17.76-21.04L17.76-21.04L17.76-4.44Q17.76 0 12.68 0L12.68 0L2.08 0ZM12.04-4.92L12.04-4.92L12.04-20.52Q12.04-21.52 10.96-21.52L10.96-21.52L7.80-21.52L7.80-3.92L10.96-3.92Q12.04-3.92 12.04-4.92Z M22.12 0L22.12-25.44L27.80-25.44L27.80 0L22.12 0Z M41.16-5.20L41.16-5.20L41.16-9.80Q41.16-10.32 40.92-10.54Q40.68-10.76 40.08-10.76L40.08-10.76L36.56-10.76Q31.84-10.76 31.84-15.24L31.84-15.24L31.84-21.04Q31.84-25.44 36.88-25.44L36.88-25.44L41.76-25.44Q46.80-25.44 46.80-21.04L46.80-21.04L46.80-17.72L41.08-17.72L41.08-20.24Q41.08-21.24 40-21.24L40-21.24L38.64-21.24Q37.56-21.24 37.56-20.24L37.56-20.24L37.56-15.76Q37.56-15.24 37.80-15.02Q38.04-14.80 38.64-14.80L38.64-14.80L42.08-14.80Q44.64-14.80 45.76-13.70Q46.88-12.60 46.88-10.44L46.88-10.44L46.88-4.44Q46.88 0 41.84 0L41.84 0L37 0Q31.92 0 31.92-4.44L31.92-4.44L31.92-7.72L37.64-7.72L37.64-5.20Q37.64-4.20 38.72-4.20L38.72-4.20L40.08-4.20Q41.16-4.20 41.16-5.20Z M49.20-25.44L64.24-25.44L64.24-21.24L59.56-21.24L59.56 0L53.84 0L53.84-21.24L49.20-21.24L49.20-25.44Z M73.72-9.52L72.72-9.52L72.72 0L67.04 0L67.04-25.44L77.52-25.44Q82.56-25.44 82.56-21.04L82.56-21.04L82.56-13.92Q82.56-10.40 79.36-9.68L79.36-9.68L83.84 0L77.72 0L73.72-9.52ZM75.80-21.24L72.72-21.24L72.72-13.56L75.80-13.56Q76.36-13.56 76.60-13.78Q76.84-14 76.84-14.52L76.84-14.52L76.84-20.24Q76.84-21.24 75.80-21.24L75.80-21.24Z M86.72 0L86.72-25.44L92.40-25.44L92.40 0L86.72 0Z M96.92 0L96.92-25.44L107.40-25.44Q112.44-25.44 112.44-21.04L112.44-21.04L112.44-13.32Q112.44-8.88 107.40-8.88L107.40-8.88L102.60-8.88L102.60 0L96.92 0ZM106.72-14.08L106.72-14.08L106.72-20.24Q106.72-21.24 105.68-21.24L105.68-21.24L102.60-21.24L102.60-13.08L105.68-13.08Q106.72-13.08 106.72-14.08Z M133.32 0L127.56 0L126.68-4.60L120.88-4.60L120.00 0L114.36 0L120.12-25.44L127.40-25.44L133.32 0ZM123.76-19.52L121.68-8.76L125.84-8.76L123.76-19.52Z M146.48-8.20L146.48 0L140.76 0L140.76-8.24L134.36-25.44L140.20-25.44L143.60-13.48L146.76-25.44L152.60-25.44L146.48-8.20Z"/></g>
</svg>
</g></svg>