<?xml version="1.0" encoding="UTF-8" standalone="no"?>
<svg
   viewBox="595.4872 508.0773 364.8455 76"
   width="333"
   height="69.36634822137042"
   x="83.5px"
   y="215.3168px"
   preserveAspectRatio="none"
   version="1.1"
   id="svg31"
   sodipodi:docname="logo-1.svg"
   inkscape:export-filename="/home/rapterpakfa/Descargas/Templates/DistriPay/site/images/logo-1.png"
   inkscape:export-xdpi="188.77"
   inkscape:export-ydpi="188.77"
   inkscape:version="1.1.2 (0a00cf5339, 2022-02-04)"
   xmlns:inkscape="http://www.inkscape.org/namespaces/inkscape"
   xmlns:sodipodi="http://sodipodi.sourceforge.net/DTD/sodipodi-0.dtd"
   xmlns:xlink="http://www.w3.org/1999/xlink"
   xmlns="http://www.w3.org/2000/svg"
   xmlns:svg="http://www.w3.org/2000/svg">
  <sodipodi:namedview
     id="namedview33"
     pagecolor="#ffffff"
     bordercolor="#666666"
     borderopacity="1.0"
     inkscape:pageshadow="2"
     inkscape:pageopacity="0.0"
     inkscape:pagecheckerboard="0"
     showgrid="false"
     inkscape:zoom="0.52852853"
     inkscape:cx="628.15909"
     inkscape:cy="485.30966"
     inkscape:window-width="1858"
     inkscape:window-height="1016"
     inkscape:window-x="0"
     inkscape:window-y="0"
     inkscape:window-maximized="1"
     inkscape:current-layer="svg31" />
  <defs
     id="defs2" />
  <style
     id="style4">.companyName {fill:#F5F5F5;fill-opacity:1;}.icon3 {fill:#00DCFB;fill-opacity:1;}.icon3-str {stroke:#00DCFB;stroke-opacity:1;}.shapeStroke-str {stroke:#F5F5F5;stroke-opacity:1;}</style>
  <g
     opacity="1"
     transform="rotate(0 595.4872 578.0773)"
     id="g13">
    <svg
       width="364.8455"
       height="6"
       x="595.4872"
       y="578.0773"
       version="1.1"
       preserveAspectRatio="none"
       viewBox="0 0 364.8455 6"
       id="svg11">
      <defs
         id="defs7">
        <rect
           x="0"
           y="0"
           width="364.8455"
           height="6"
           rx="4%"
           ry="4%"
           id="id-UPl23ini1679971693603" />
      </defs>
      <use
         class="companyName shapeStroke-str"
         style="stroke-width:0;"
         xlink:href="#id-UPl23ini1679971693603"
         id="use9" />
    </svg>
  </g>
  <g
     opacity="1"
     transform="rotate(0 595.4872 508.0773)"
     id="g20">
    <svg
       width="364.8455"
       height="60"
       x="595.4872"
       y="508.0773"
       version="1.1"
       preserveAspectRatio="none"
       viewBox="2.8 -28.64 228.88 37.64"
       id="svg18">
      <g
         class="companyName"
         id="g16"
         transform="matrix(1 0 0 1 0 0)">
        <path
           id="id-D6z1nYkh9"
           d="M20.32 0L2.80 0L2.80-28.60L7.52-28.60L20.32-28.64Q28.08-28.64 32.36-25Q36.64-21.36 36.64-14.32L36.64-14.32Q36.64-7.28 32.36-3.64Q28.08 0 20.32 0L20.32 0ZM19.88-23.44L19.88-23.44L9.20-23.44L9.20-5.20L19.88-5.20Q24.92-5.20 27.52-7.40Q30.12-9.60 30.12-14.32L30.12-14.32Q30.12-19.08 27.52-21.26Q24.92-23.44 19.88-23.44Z M45.84 0L40.04 0L40.04-20.60L45.84-20.60L45.84 0ZM45.88-24L40-24L40-28.52L45.88-28.52L45.88-24Z M70.20 0.20L49.56 0.20L49.56-4.40L69.16-4.40Q70.84-4.40 70.84-6.28L70.84-6.28Q70.84-8.12 69.16-8.12L69.16-8.12L56.48-8.12Q52.92-8.12 51.08-9.74Q49.24-11.36 49.24-14.40L49.24-14.40Q49.24-17.48 51.10-19.14Q52.96-20.80 56.48-20.80L56.48-20.80L74.72-20.80L74.72-16.20L56.76-16.20Q55.04-16.20 55.04-14.52L55.04-14.52Q55.04-13.68 55.52-13.20Q56.00-12.72 56.76-12.72L56.76-12.72L70.20-12.72Q73.32-12.72 74.98-11.10Q76.64-9.48 76.64-6.40L76.64-6.40Q76.64-3.28 74.96-1.54Q73.28 0.20 70.20 0.20L70.20 0.20Z M99.48 0L90.76 0Q87.28 0 85.64-1.74Q84-3.48 84-6.32L84-6.32L84-16L78.04-16L78.04-20.60L84-20.60L84-26.92L89.80-26.92L89.80-20.60L98.36-20.60L98.36-16L89.80-16L89.80-7.04Q89.80-4.60 92.20-4.60L92.20-4.60L99.48-4.60L99.48 0Z M108.36 0L102.48 0L102.48-20.60L118.24-20.60Q121.72-20.60 123.36-18.86Q125-17.12 125-14.28L125-14.28L125-10L119.12-10L119.12-13.56Q119.12-15.96 116.72-15.96L116.72-15.96L108.36-15.96L108.36 0Z M134 0L128.20 0L128.20-20.60L134-20.60L134 0ZM134.04-24L128.16-24L128.16-28.52L134.04-28.52L134.04-24Z M145.40 0L139 0L139-28.60L162.96-28.60Q167.40-28.60 169.86-26.36Q172.32-24.12 172.32-19.56L172.32-19.56Q172.32-15 169.86-12.76Q167.40-10.52 162.96-10.52L162.96-10.52L145.40-10.52L145.40 0ZM162.20-23.40L162.20-23.40L145.40-23.40L145.40-15.76L162.20-15.72Q163.96-15.72 164.90-16.60Q165.84-17.48 165.84-19.56L165.84-19.56Q165.84-21.68 164.90-22.54Q163.96-23.40 162.20-23.40Z M202.36 0L181.20 0Q177.96 0 176.24-1.64Q174.52-3.28 174.52-6.32L174.52-6.32Q174.52-9.32 176.24-10.96Q177.96-12.60 181.20-12.60L181.20-12.60L196.56-12.60L196.56-13.56Q196.56-16 194.16-16L194.16-16L177.20-16L177.20-20.60L195.68-20.60Q199.32-20.60 200.84-18.94Q202.36-17.28 202.36-14.28L202.36-14.28L202.36 0ZM182.24-4.60L182.24-4.60L196.56-4.60L196.56-8L182.24-8Q181.48-8 181.06-7.54Q180.64-7.08 180.64-6.32L180.64-6.32Q180.64-5.56 181.06-5.08Q181.48-4.60 182.24-4.60Z M224.92 9L211.40 9L211.40 4.40L223.48 4.40Q225.88 4.40 225.88 1.96L225.88 1.96L225.88 0L213.52 0Q210.00 0 208.38-1.76Q206.76-3.52 206.76-6.32L206.76-6.32L206.76-20.60L212.56-20.60L212.56-7Q212.56-4.60 214.96-4.60L214.96-4.60L225.68-4.60L225.68-20.60L231.68-20.60L231.68 2.68Q231.68 5.52 230.04 7.26Q228.40 9 224.92 9L224.92 9Z" />
      </g>
    </svg>
  </g>
  <g
     opacity="1"
     transform="rotate(0 595.4872 578.0773)"
     id="g29">
    <svg
       width="80.266"
       height="6"
       x="595.4872"
       y="578.0773"
       version="1.1"
       preserveAspectRatio="none"
       viewBox="0 0 80.266 6"
       id="svg27">
      <defs
         id="defs23">
        <rect
           x="0"
           y="0"
           width="80.266"
           height="6"
           rx="0px"
           ry="0px"
           id="id-o0jQam8yd1679971693603" />
      </defs>
      <use
         class="icon3 shapeStroke-str"
         style="stroke-width:0;"
         xlink:href="#id-o0jQam8yd1679971693603"
         id="use25" />
    </svg>
  </g>
</svg>
